<svg width="375" height="758" viewBox="0 0 375 758" fill="none" xmlns="http://www.w3.org/2000/svg">
<g clip-path="url(#clip0_339_23128)">
<rect width="375" height="758" fill="#FF761B"/>
<g opacity="0.5">
<path d="M238.502 233.326C245.015 233.324 251.342 235.394 256.478 239.207C261.614 243.02 265.265 248.357 266.852 254.371C270.093 252.741 273.701 251.882 277.367 251.866C281.033 251.851 284.649 252.681 287.905 254.284C291.162 255.888 293.962 258.217 296.068 261.075C298.174 263.932 299.523 267.232 299.999 270.693C303.972 271.412 307.52 273.517 309.948 276.596C312.376 279.675 313.51 283.506 313.127 287.339C312.745 291.172 310.873 293.731 307.879 296.32C304.886 298.908 300.985 300.339 296.941 300.333H217.973C212.808 300.337 207.795 298.665 203.761 295.594C199.728 292.523 196.913 289.235 195.781 284.436C194.649 279.638 195.268 274.616 197.535 270.197C199.801 265.778 204.632 262.227 209.303 260.127C209.58 252.93 212.778 246.116 218.223 241.117C223.669 236.119 230.938 233.326 238.502 233.326Z" fill="white" fill-opacity="0.8"/>
<path d="M61.7643 316.145C55.8903 316.143 50.184 318.104 45.5515 321.716C40.9191 325.327 37.6261 330.383 36.1955 336.08C33.2717 334.536 30.0178 333.722 26.7113 333.708C23.4048 333.693 20.1439 334.479 17.2068 335.998C14.2698 337.517 11.7438 339.724 9.84435 342.43C7.94493 345.137 6.72849 348.263 6.29882 351.541C2.71573 352.222 -0.484062 354.216 -2.67412 357.133C-4.86417 360.049 -5.88677 363.678 -5.5417 367.309C-5.19664 370.94 -3.50874 374.312 -0.808502 376.764C1.89175 379.215 5.40989 380.571 9.05717 380.565H79.3333C83.9917 380.569 88.5124 378.985 92.1507 376.076C95.7889 373.167 98.3275 369.105 99.3484 364.56C100.369 360.015 99.8115 355.257 97.7669 351.071C95.7222 346.886 92.3128 343.521 88.1003 341.533C87.8501 334.715 84.9659 328.26 80.0543 323.525C75.1427 318.791 68.5864 316.145 61.7643 316.145Z" fill="white" fill-opacity="0.5"/>
<path d="M347.307 311.254C350.902 311.253 354.394 312.453 357.229 314.663C360.064 316.874 362.079 319.968 362.955 323.454C364.744 322.509 366.736 322.011 368.759 322.002C370.783 321.994 372.779 322.474 374.576 323.404C376.374 324.334 377.92 325.684 379.082 327.341C380.244 328.997 380.989 330.91 381.252 332.917C383.445 333.333 385.403 334.554 386.743 336.339C388.084 338.124 388.71 340.345 388.498 342.567C388.287 344.789 387.254 346.273 385.602 347.773C383.949 349.274 381.796 350.103 379.564 350.1H336.554C333.703 350.102 330.937 349.133 328.71 347.352C326.483 345.572 324.93 343.666 324.305 340.884C323.68 338.102 324.022 335.191 325.273 332.629C326.524 330.068 328.611 328.008 331.189 326.791C331.342 322.619 333.107 318.669 336.113 315.771C339.119 312.873 343.131 311.254 347.307 311.254Z" fill="white" fill-opacity="0.6"/>
</g>
<ellipse cx="188" cy="773.659" rx="260" ry="240" fill="#FFDD95"/>
<path fill-rule="evenodd" clip-rule="evenodd" d="M332.994 142.603C333.767 142.763 334.444 143.223 334.878 143.883C335.311 144.542 335.465 145.347 335.305 146.12L334.502 150.006C334.342 150.779 333.881 151.457 333.222 151.89C332.562 152.324 331.757 152.478 330.984 152.318C330.211 152.158 329.534 151.697 329.1 151.038C328.667 150.378 328.513 149.573 328.673 148.8L329.476 144.914C329.636 144.142 330.097 143.464 330.756 143.03C331.416 142.597 332.221 142.443 332.994 142.603ZM349.567 154.766C350 155.425 350.153 156.23 349.993 157.002C349.834 157.774 349.374 158.452 348.715 158.885L345.872 161.097C345.213 161.497 344.425 161.626 343.672 161.457C342.92 161.287 342.263 160.832 341.839 160.188C341.416 159.544 341.259 158.76 341.402 158.002C341.544 157.244 341.976 156.572 342.605 156.126L345.448 153.914C346.107 153.481 346.911 153.328 347.684 153.488C348.456 153.647 349.133 154.107 349.567 154.766ZM342.605 172.202C342.765 171.429 343.225 170.751 343.885 170.318C344.544 169.884 346.416 170.158 347.189 170.318L350.008 170.694C350.781 170.854 351.459 171.314 351.892 171.974C352.326 172.634 352.48 173.438 352.32 174.211C352.16 174.984 351.7 175.662 351.04 176.096C350.38 176.529 349.576 176.683 348.803 176.523L344.917 175.719C344.144 175.56 343.466 175.099 343.032 174.44C342.599 173.78 342.445 172.975 342.605 172.202Z" fill="white"/>
<path fill-rule="evenodd" clip-rule="evenodd" d="M44.683 111.644C44.9416 110.898 45.4858 110.285 46.1959 109.941C46.9061 109.596 47.724 109.548 48.4698 109.806L52.2191 111.106C52.9649 111.365 53.5775 111.909 53.922 112.619C54.2665 113.329 54.3149 114.147 54.0563 114.893C53.7978 115.639 53.2536 116.251 52.5435 116.596C51.8333 116.94 51.0154 116.989 50.2696 116.73L46.5202 115.43C45.7745 115.172 45.1619 114.628 44.8174 113.917C44.4728 113.207 44.4245 112.389 44.683 111.644ZM58.8885 96.7832C59.5983 96.4394 60.4155 96.3914 61.1607 96.6497C61.9059 96.908 62.5181 97.4515 62.8628 98.1609L64.6877 101.266C64.9996 101.971 65.0256 102.77 64.7602 103.494C64.4949 104.218 63.9588 104.811 63.265 105.148C62.5712 105.484 61.7738 105.538 61.0409 105.299C60.3079 105.059 59.6966 104.544 59.3357 103.863L57.5108 100.757C57.167 100.048 57.119 99.2305 57.3773 98.4853C57.6356 97.7401 58.1791 97.1279 58.8885 96.7832ZM75.2772 105.943C74.5315 105.684 73.9189 105.14 73.5744 104.43C73.2298 103.72 73.7434 101.899 74.002 101.153L74.7397 98.4068C74.9983 97.661 75.5425 97.0485 76.2526 96.7039C76.9628 96.3594 77.7807 96.311 78.5265 96.5696C79.2723 96.8281 79.8848 97.3723 80.2294 98.0825C80.5739 98.7926 80.6222 99.6106 80.3637 100.356L79.064 104.106C78.8055 104.851 78.2613 105.464 77.5511 105.809C76.841 106.153 76.023 106.201 75.2772 105.943Z" fill="white"/>
<path d="M83.33 111.384C85.026 111.384 86.05 112.472 86.05 114.072V141.432H80.61V127.128H78.53C76.77 127.128 75.682 126.04 75.682 124.408C75.682 122.808 76.738 121.656 78.53 121.656H80.61V114.072C80.61 112.472 81.634 111.384 83.33 111.384ZM90.466 111.384C92.162 111.384 93.25 112.472 93.25 114.136V141.432H87.65V114.136C87.65 112.472 88.77 111.384 90.466 111.384ZM74.114 126.968C77.026 128.472 79.874 131.48 79.394 139.512H73.698C74.274 136.248 73.794 134.232 72.738 133.016C71.202 137.368 68.706 139.96 66.018 139.96C64.514 139.96 63.298 138.968 63.298 137.496C63.298 136.632 63.714 135.8 64.706 134.968C67.458 132.632 68.642 128.664 68.642 122.424V118.072H66.146C64.226 118.072 63.426 116.728 63.426 115.416C63.426 114.136 64.194 112.728 66.146 112.728H76.802C78.754 112.728 79.458 114.136 79.458 115.416C79.458 116.728 78.722 118.072 76.802 118.072H74.402V122.328C74.402 123.96 74.306 125.528 74.114 126.968ZM98.338 123.128C102.466 122.68 106.594 120.44 107.202 117.336H99.298C97.378 117.336 96.61 116.024 96.61 114.712C96.61 113.432 97.346 112.056 99.298 112.056H121.442C123.394 112.056 124.13 113.432 124.13 114.712C124.13 116.024 123.362 117.336 121.442 117.336H113.666C113.602 117.944 113.474 118.52 113.314 119.064C119.33 118.712 124.226 122.04 124.738 128.344H118.402C117.506 125.016 114.178 123.16 110.562 123.576C107.65 126.552 103.17 128.376 99.202 128.376C97.25 128.376 96.002 127.288 96.002 125.592C96.002 124.28 96.962 123.256 98.338 123.128ZM98.082 129.464H122.658C124.578 129.464 125.346 130.776 125.346 132.088C125.346 133.432 124.546 134.712 122.658 134.712H113.634V141.592H107.106V134.712H98.082C96.194 134.712 95.394 133.432 95.394 132.088C95.394 130.776 96.162 129.464 98.082 129.464ZM140.779 111.704H162.315C163.563 111.704 164.235 112.504 164.235 113.56C164.235 114.68 163.531 115.416 162.315 115.416H144.043C143.691 115.416 143.435 115.608 143.435 115.96V116.6H162.347C163.467 116.6 164.043 117.304 164.043 118.232C164.043 119.192 163.435 119.864 162.347 119.864H143.435V120.472C143.435 120.856 143.691 121.048 144.043 121.048H162.731C163.947 121.048 164.619 121.784 164.619 122.84C164.619 123.96 163.915 124.632 162.731 124.632H140.779C138.187 124.632 137.035 123.544 137.035 121.24V115.096C137.035 112.792 138.187 111.704 140.779 111.704ZM138.219 125.944H163.179C164.907 125.944 165.675 126.936 165.675 128.248C165.675 129.592 164.875 130.552 163.179 130.552H138.219C136.523 130.552 135.723 129.592 135.723 128.248C135.723 126.936 136.491 125.944 138.219 125.944ZM157.227 136.472H139.659C137.931 136.472 136.971 135.544 136.971 134.104C136.971 132.664 137.931 131.768 139.659 131.768H159.755C163.627 131.768 164.331 132.888 164.331 136.6V141.432H157.931V137.176C157.931 136.664 157.739 136.472 157.227 136.472ZM195.659 119.384H196.651C198.603 119.384 199.179 120.888 199.179 122.168C199.179 123.48 198.571 124.952 196.651 124.952H195.659V134.072H189.259V114.552C189.259 112.472 190.763 111.384 192.459 111.384C194.155 111.384 195.659 112.472 195.659 114.552V119.384ZM178.539 123.128C176.427 126.968 172.811 128.984 170.155 128.984C168.491 128.984 167.307 128.056 167.307 126.2C167.307 125.016 168.011 124.12 169.227 123.64C172.235 122.424 173.835 120.344 173.931 115.896V114.68C173.995 112.792 175.499 111.832 177.227 111.864C178.923 111.896 180.299 112.952 180.299 114.776V115.928C180.299 116.728 180.235 117.496 180.139 118.2C184.875 118.744 187.659 122.04 187.435 128.536H181.227C181.451 125.464 180.491 123.672 178.539 123.128ZM177.163 136.504H194.027C195.947 136.504 196.683 137.656 196.683 138.936C196.683 140.248 195.915 141.432 194.027 141.432H174.443C170.859 141.432 169.899 140.184 169.899 136.76V133.4C169.899 131.32 171.403 130.328 173.195 130.328C174.987 130.328 176.395 131.352 176.395 133.4V135.768C176.395 136.376 176.555 136.504 177.163 136.504ZM225.643 116.152H202.475C200.971 116.152 200.203 115.288 200.203 113.976C200.203 112.696 200.939 111.8 202.475 111.8H225.643C227.179 111.8 227.915 112.696 227.915 113.976C227.915 115.288 227.147 116.152 225.643 116.152ZM226.027 124.312H202.091C200.587 124.312 199.819 123.576 199.819 122.264C199.819 120.984 200.555 120.216 202.091 120.216H204.683V119.608C204.683 117.72 206.027 116.824 207.979 116.824C209.899 116.824 211.211 117.752 211.211 119.608V120.216H216.907V119.608C216.907 117.72 218.251 116.824 220.203 116.824C222.123 116.824 223.435 117.752 223.435 119.608V120.216H226.027C227.563 120.216 228.299 120.984 228.299 122.264C228.299 123.576 227.531 124.312 226.027 124.312ZM226.603 129.912H217.323V131.192H223.595C227.019 131.192 227.723 132.28 227.723 135.32V141.432H204.491C201.067 141.432 200.363 140.312 200.363 137.272V135.32C200.363 132.28 201.067 131.192 204.491 131.192H210.795V129.912H201.515C199.883 129.912 199.083 129.048 199.083 127.704C199.083 126.392 199.851 125.464 201.515 125.464H226.603C228.267 125.464 229.035 126.392 229.035 127.704C229.035 129.048 228.235 129.912 226.603 129.912ZM221.355 137.24V136.024C221.355 135.672 221.195 135.384 220.555 135.384H207.531C206.891 135.384 206.763 135.672 206.763 136.024V136.568C206.763 136.984 206.891 137.24 207.531 137.24H221.355ZM266.515 127.544H266.675C268.595 127.544 269.363 128.856 269.363 130.168C269.363 131.512 268.563 132.792 266.675 132.792H257.651V141.592H251.123V132.792H242.099C240.211 132.792 239.411 131.512 239.411 130.168C239.411 128.856 240.179 127.544 242.099 127.544H259.923C260.947 125.784 261.459 123.512 261.459 120.248V118.488C261.459 118.04 261.171 117.688 260.659 117.688H243.283C241.363 117.688 240.467 116.248 240.467 114.936C240.467 113.656 241.331 112.184 243.283 112.184H262.835C266.611 112.184 267.763 113.624 267.763 116.76V119.8C267.763 122.872 267.283 125.496 266.515 127.544ZM297.844 111.384C299.54 111.384 300.628 112.472 300.628 114.136V141.432H295.028V128.312H293.428V141.432H287.828V114.136C287.828 112.472 288.948 111.384 290.644 111.384C292.34 111.384 293.428 112.472 293.428 114.136V123H295.028V114.136C295.028 112.472 296.148 111.384 297.844 111.384ZM276.372 112.44H281.172C285.108 112.44 285.876 113.688 285.876 117.72V140.216H276.372C272.436 140.216 271.668 138.968 271.668 134.936V117.72C271.668 113.688 272.436 112.44 276.372 112.44ZM278.42 135.384H280.18V118.328C280.18 117.688 280.02 117.272 279.316 117.272H278.196C277.492 117.272 277.364 117.688 277.364 118.328V134.296C277.364 135 277.588 135.384 278.42 135.384ZM310.291 132.984H303.763V115.32C303.763 113.24 305.331 112.152 307.027 112.152C308.691 112.152 310.291 113.272 310.291 115.32V132.984ZM303.603 137.72C303.603 135.736 304.883 134.488 307.027 134.488C309.171 134.488 310.451 135.768 310.451 137.72C310.451 139.672 309.171 140.952 307.027 140.952C304.883 140.952 303.603 139.704 303.603 137.72ZM69.7356 165.144H70.7276C72.6796 165.144 73.2556 166.648 73.2556 167.928C73.2556 169.24 72.6476 170.712 70.7276 170.712H69.7356V176.952H63.3356V162.552C63.3356 160.472 64.8396 159.384 66.5356 159.384C68.2316 159.384 69.7356 160.472 69.7356 162.552V165.144ZM60.1356 176.632H47.2716C43.5276 176.632 42.4716 175.64 42.4716 172.472V164.472C42.4716 161.304 43.5276 160.344 47.2716 160.344H58.1836C59.7516 160.344 60.2956 161.336 60.2956 162.552C60.2956 163.8 59.7196 164.792 58.1836 164.792H49.5116C48.9356 164.792 48.6796 164.984 48.6796 165.56V166.36H57.7036C59.2716 166.36 59.9756 167.16 59.9756 168.504C59.9756 169.816 59.2396 170.584 57.7036 170.584H48.6796V171.48C48.6796 172.056 48.9356 172.248 49.5116 172.248H60.1356C61.7036 172.248 62.2476 173.24 62.2476 174.456C62.2476 175.704 61.6716 176.632 60.1356 176.632ZM48.1996 178.072H65.6076C69.2236 178.072 69.9276 179.224 69.9276 182.52V189.432H48.1996C44.3276 189.432 43.6236 188.28 43.6236 184.696V182.808C43.6236 179.224 44.3276 178.072 48.1996 178.072ZM50.5996 185.112H63.6236V183.064C63.6236 182.52 63.4636 182.36 62.9516 182.36H50.5996C50.0876 182.36 49.9276 182.52 49.9276 183.064V184.376C49.9276 184.984 50.0876 185.112 50.5996 185.112ZM101.256 170.584H102.408C104.36 170.584 104.936 172.088 104.936 173.368C104.936 174.68 104.328 176.152 102.408 176.152H101.256V189.432H94.8556V162.552C94.8556 160.472 96.3596 159.384 98.0556 159.384C99.7516 159.384 101.256 160.472 101.256 162.552V170.584ZM81.7996 182.84H90.8876C92.8396 182.84 93.6076 184.184 93.6076 185.464C93.6076 186.776 92.8076 188.088 90.8876 188.088H79.2716C75.4956 188.088 74.0236 186.712 74.0236 182.936V176.536C74.0236 172.76 75.4956 171.448 79.2716 171.448H84.8716V166.744C84.8716 166.328 84.7436 165.912 84.0716 165.912H76.9996C75.0796 165.912 74.2796 164.568 74.2796 163.256C74.2796 161.976 75.0476 160.568 76.9996 160.568H85.9276C90.1196 160.568 91.2396 161.752 91.2396 165.176V176.664H81.7996C80.7436 176.664 80.3916 176.92 80.3916 177.976V181.528C80.3916 182.584 80.7436 182.84 81.7996 182.84ZM133.096 164.824H134.088C136.04 164.824 136.616 166.328 136.616 167.608C136.616 168.92 136.008 170.392 134.088 170.392H133.096V176.312H126.696V162.552C126.696 160.472 128.2 159.384 129.896 159.384C131.592 159.384 133.096 160.472 133.096 162.552V164.824ZM115.912 172.056C114.056 174.68 111.048 176.216 108.008 176.216C106.44 176.216 105.064 175.288 105.064 173.656C105.064 172.376 105.8 171.512 107.048 171.32C110.056 170.872 111.656 168.856 111.656 166.232V165.464H107.624C106.12 165.464 105.288 164.12 105.288 162.968C105.288 161.816 105.992 160.408 107.624 160.408H122.28C123.912 160.408 124.616 161.816 124.616 162.968C124.616 164.12 123.784 165.464 122.28 165.464H117.704V166.232C117.704 166.744 117.672 167.224 117.608 167.736C122.408 167.8 124.936 170.456 124.808 175.992H118.856C119.048 173.752 117.864 171.992 115.912 172.056ZM113.736 177.304H126.664C131.304 177.304 133.608 179.8 133.608 183.416C133.608 187 131.304 189.528 126.664 189.528H113.736C109.064 189.528 106.792 186.936 106.792 183.416C106.792 179.864 109.064 177.304 113.736 177.304ZM115.336 185.176H125.096C126.504 185.176 127.112 184.376 127.112 183.416C127.112 182.456 126.504 181.656 125.096 181.656H115.336C113.928 181.656 113.288 182.456 113.288 183.416C113.288 184.376 113.928 185.176 115.336 185.176ZM162.376 159.384C164.072 159.384 165.576 160.472 165.576 162.552V189.432H159.176V176.728H157.096C155.336 176.728 154.248 175.64 154.248 174.008C154.248 172.408 155.304 171.256 157.096 171.256H159.176V162.552C159.176 160.472 160.68 159.384 162.376 159.384ZM144.648 182.808H154.248C156.104 182.808 156.648 184.28 156.648 185.496C156.648 186.744 156.072 188.152 154.248 188.152H142.248C138.28 188.152 137.512 187.16 137.512 183.352V165.272C137.512 161.464 138.28 160.504 142.248 160.504H152.456C154.312 160.504 154.856 161.976 154.856 163.192C154.856 164.44 154.28 165.912 152.456 165.912H144.648C144.072 165.912 143.816 166.104 143.816 166.84V171.512H150.568C152.424 171.512 153.128 172.824 153.128 174.168C153.128 175.48 152.392 176.792 150.568 176.792H143.816V181.88C143.816 182.616 144.072 182.808 144.648 182.808ZM196.296 170.584H197.448C199.4 170.584 199.976 172.088 199.976 173.368C199.976 174.68 199.368 176.152 197.448 176.152H196.296V189.432H189.896V162.552C189.896 160.472 191.4 159.384 193.096 159.384C194.792 159.384 196.296 160.472 196.296 162.552V170.584ZM181.48 183.128H186.088C188.008 183.128 188.776 184.472 188.776 185.784C188.776 187.128 187.976 188.376 186.088 188.376H170.888C169 188.376 168.2 187.128 168.2 185.784C168.2 184.472 168.968 183.128 170.888 183.128H175.272V178.232C171.56 177.4 169 174.904 169 170.552V167.928C169 162.456 173.032 159.928 178.28 159.928C183.496 159.928 187.496 162.456 187.496 167.928V170.552C187.496 174.84 185.032 177.304 181.48 178.2V183.128ZM175.24 167.672V170.808C175.24 172.824 176.744 173.592 178.28 173.592C179.784 173.592 181.288 172.824 181.288 170.808V167.672C181.288 165.688 179.784 164.888 178.28 164.888C176.744 164.888 175.24 165.688 175.24 167.672ZM209.904 170.296V168.344C209.904 167.64 210.064 167 210.352 166.456C208.912 166.392 208.112 165.496 208.112 164.184C208.112 162.84 208.912 161.976 210.48 161.976H215.056C215.184 160.184 216.4 159.128 218.32 159.128C220.24 159.128 221.424 160.184 221.552 161.976H226.128C227.696 161.976 228.528 162.84 228.528 164.184C228.528 165.496 227.696 166.392 226.256 166.456C226.544 167 226.704 167.64 226.704 168.344V170.296C226.704 174.36 223.504 176.824 218.32 176.824C213.136 176.824 209.904 174.36 209.904 170.296ZM236.784 164.824H237.776C239.728 164.824 240.304 166.328 240.304 167.608C240.304 168.92 239.696 170.392 237.776 170.392H236.784V176.952H230.384V162.552C230.384 160.472 231.888 159.384 233.584 159.384C235.28 159.384 236.784 160.472 236.784 162.552V164.824ZM220.912 170.072V168.408C220.912 167 219.888 166.072 218.32 166.072C216.72 166.072 215.696 167 215.696 168.408V170.072C215.696 171.512 216.72 172.408 218.32 172.408C219.888 172.408 220.912 171.512 220.912 170.072ZM215.248 178.072H232.656C236.272 178.072 236.976 179.224 236.976 182.52V189.432H215.248C211.376 189.432 210.672 188.28 210.672 184.696V182.808C210.672 179.224 211.376 178.072 215.248 178.072ZM217.648 185.112H230.672V183.064C230.672 182.52 230.512 182.36 230 182.36H217.648C217.136 182.36 216.976 182.52 216.976 183.064V184.376C216.976 184.984 217.136 185.112 217.648 185.112ZM260.304 159.384C262 159.384 263.024 160.472 263.024 162.072V189.432H257.584V176.568H257.264C256.816 176.568 256.432 176.504 256.08 176.376V179.288C256.08 184.952 253.616 188.056 250.512 188.728C248.144 189.208 247.088 187.928 247.088 186.392C247.056 185.432 247.6 184.568 248.528 184.12C250.096 183.288 250.896 182.04 250.896 179.256V165.88C250.896 165.624 250.8 165.56 250.608 165.56H248.56V177.624C248.56 183.416 245.52 186.264 242.608 186.68C241.168 186.872 239.824 186.072 239.824 184.408C239.792 183.384 240.144 182.68 241.424 182.008C242.672 181.336 243.504 180.184 243.504 177.592V165.976C243.504 165.72 243.408 165.656 243.216 165.656H242.832C241.008 165.656 240.304 164.44 240.304 163.128C240.304 161.848 240.976 160.6 242.832 160.6H252.752C255.44 160.6 256.08 161.496 256.08 163.608V171.288C256.432 171.16 256.816 171.096 257.264 171.096H257.584V162.072C257.584 160.472 258.608 159.384 260.304 159.384ZM267.12 159.384C268.816 159.384 269.904 160.472 269.904 162.136V189.432H264.304V162.136C264.304 160.472 265.424 159.384 267.12 159.384ZM298.64 159.384C300.336 159.384 301.424 160.472 301.424 162.136V189.432H295.824V176.312H294.224V189.432H288.624V162.136C288.624 160.472 289.744 159.384 291.44 159.384C293.136 159.384 294.224 160.472 294.224 162.136V171H295.824V162.136C295.824 160.472 296.944 159.384 298.64 159.384ZM282.672 162.808H285.488C287.056 162.808 287.888 163.96 287.888 165.304C287.888 166.424 287.28 167.448 286.192 167.736C286.448 168.472 286.576 169.272 286.576 170.2V181.048C286.576 186.392 284.08 188.984 279.664 188.984C275.28 188.984 272.752 186.392 272.752 181.048V170.2C272.752 169.272 272.88 168.472 273.168 167.736C272.08 167.416 271.472 166.424 271.472 165.304C271.472 163.96 272.272 162.808 273.84 162.808H276.656V162.392C276.656 160.632 277.648 159.448 279.664 159.448C281.68 159.448 282.672 160.632 282.672 162.392V162.808ZM281.008 182.104V169.368C281.008 168.088 280.56 167.448 279.664 167.448C278.768 167.448 278.32 168.088 278.32 169.368V182.104C278.32 183.384 278.768 184.056 279.664 184.056C280.56 184.056 281.008 183.384 281.008 182.104ZM324.208 176.984H312.848C307.632 176.984 304.528 173.24 304.528 168.952V168.216C304.528 163.928 307.632 160.184 312.848 160.184H324.208C329.424 160.184 332.56 163.928 332.56 168.216V168.952C332.56 173.24 329.424 176.984 324.208 176.984ZM311.152 168.184V168.984C311.152 170.648 312.496 171.896 314.512 171.896H322.544C324.56 171.896 325.936 170.648 325.936 168.984V168.184C325.936 166.52 324.56 165.272 322.544 165.272H314.512C312.496 165.272 311.152 166.52 311.152 168.184ZM327.728 183.704H330.864C332.752 183.704 333.52 184.952 333.52 186.264C333.52 187.608 332.72 188.792 330.864 188.792H306.224C304.368 188.792 303.568 187.608 303.568 186.264C303.568 184.952 304.336 183.704 306.224 183.704H309.36V180.664C309.36 178.648 310.768 178.008 312.464 178.008C314.128 178.008 315.568 178.68 315.568 180.664V183.704H321.52V180.664C321.52 178.648 322.928 178.008 324.624 178.008C326.288 178.008 327.728 178.68 327.728 180.664V183.704Z" fill="white"/>
</g>
<defs>
<clipPath id="clip0_339_23128">
<rect width="375" height="758" fill="white"/>
</clipPath>
</defs>
</svg>
