<svg width="24" height="24" viewBox="0 0 24 24" fill="none" xmlns="http://www.w3.org/2000/svg">
<path d="M14.1996 11.7315C13.5138 11.6118 12.6111 11.6955 12 12.0312C10.6743 12.762 9.9759 14.4432 9.9138 16.1793C9.8625 17.6193 10.11 19.1682 10.4331 20.4273M14.1996 11.7315C14.5587 10.4625 15.9609 9.39783 17.4 9.04503C19.533 8.52123 20.9748 9.92703 21 12.0312C21 8.93163 18.462 4.01403 15.2004 4.04913C13.9476 4.04913 13.323 5.39643 13.0305 6.40443M14.1996 11.7315C14.4246 10.6569 14.4525 9.91353 14.2005 9.24933C13.9908 8.70033 13.5903 8.20533 12.9504 7.62123L12.8001 7.48623C13.1097 4.04913 10.3386 2.65683 7.4982 4.24803C4.782 5.76903 3 8.62653 3 12.0312C3 16.5627 6.2769 20.2221 10.5663 20.916C11.0337 20.9928 11.5116 21.0312 12 21.0312C16.8924 21.0312 20.9523 17.0082 21 12.1212V12.1104M11.01 20.4282L17.7996 12.9447M9.4998 15.7239L6.6 12.5397M11.9703 11.8062C11.757 10.9494 10.4457 9.59403 8.7996 10.5192C8.1372 10.1061 7.5387 9.81003 6.9996 9.61113C5.1987 8.94693 4.0737 9.24753 3.4914 10.0962L3.4608 10.1412" stroke="black" stroke-width="1.5" stroke-linecap="round"/>
</svg>
