<svg width="24" height="24" viewBox="0 0 24 24" fill="none" xmlns="http://www.w3.org/2000/svg">
<path d="M6 13C6 14.7 8.7 16 12 16C15.3 16 18 14.7 18 13V10C18 8.4087 17.3679 6.88258 16.2426 5.75736C15.1174 4.63214 13.5913 4 12 4C10.4087 4 8.88258 4.63214 7.75736 5.75736C6.63214 6.88258 6 8.4087 6 10V13Z" stroke="#FF761B" stroke-width="2" stroke-linecap="round" stroke-linejoin="round"/>
<path d="M6 9C6 10.7 8.7 12 12 12C15.3 12 18 10.7 18 9" stroke="#FF761B" stroke-width="2" stroke-linecap="round" stroke-linejoin="round"/>
<path d="M6 9.19995C3.6 10.3 2 12 2 14C2 17.3 6.5 20 12 20C17.5 20 22 17.3 22 14C22 12 20.4 10.3 18 9.19995" stroke="#FF761B" stroke-width="2" stroke-linecap="round" stroke-linejoin="round"/>
</svg>
