<svg width="36" height="36" viewBox="0 0 36 36" fill="none" xmlns="http://www.w3.org/2000/svg">
<path d="M18.069 2.8623C18.2695 2.86231 18.467 2.91349 18.6451 3.01172L18.6471 3.0127L18.6764 3.0293C18.8379 3.11424 18.9981 3.20133 19.1569 3.29102C21.0556 4.37601 22.8246 5.66084 24.4313 7.12109C27.2902 9.73853 30.3356 13.69 30.3356 18.6973C30.3362 21.6364 29.2068 24.4714 27.1656 26.6514C25.1245 28.8312 22.3174 30.2002 19.2897 30.4941V33.3145C19.2896 33.6288 19.1604 33.9301 18.9303 34.1523C18.7001 34.3747 18.3876 34.5 18.0621 34.5C17.7368 34.4999 17.425 34.3745 17.1949 34.1523C16.9648 33.9301 16.8356 33.6288 16.8356 33.3145V30.4932C13.808 30.1993 11.0007 28.829 8.95959 26.6494C6.91878 24.4699 5.78847 21.6359 5.7887 18.6973C5.7887 13.69 8.83607 9.73853 11.6949 7.12109C13.3016 5.66077 15.0706 4.37605 16.9694 3.29102C17.1275 3.19986 17.2883 3.11299 17.4508 3.0293L17.4801 3.0127L17.4899 3.00879L17.4918 3.00684H17.4948L17.4957 3.00879C17.673 2.91183 17.8698 2.8623 18.069 2.8623ZM18.066 5.42188C16.384 6.39793 14.8146 7.54505 13.3854 8.84375C10.7212 11.2826 8.24573 14.6514 8.24573 18.6992C8.24582 21.0089 9.1181 23.2394 10.6998 24.9717C12.2816 26.704 14.4638 27.8196 16.8365 28.1084V24.6768L12.0973 21.5186C11.8427 21.3352 11.6714 21.0634 11.6198 20.7607C11.5681 20.4581 11.6407 20.1481 11.8209 19.8955C12.0013 19.6429 12.2762 19.4672 12.5875 19.4062C12.8987 19.3454 13.222 19.4037 13.4899 19.5684L16.8365 21.7969V17.2148L13.1012 14.5117C12.851 14.3198 12.688 14.0414 12.6471 13.7354C12.6062 13.4294 12.6901 13.12 12.8815 12.873C13.073 12.6262 13.357 12.4613 13.6725 12.4131C13.9881 12.365 14.3109 12.4373 14.5719 12.6152L16.8356 14.2529V10.7686C16.8356 10.6131 16.8668 10.4591 16.9283 10.3154C16.99 10.1716 17.081 10.0407 17.1949 9.93066C17.3088 9.82078 17.4437 9.73336 17.5924 9.67383C17.7412 9.6143 17.9011 9.58404 18.0621 9.58398C18.2232 9.58398 18.383 9.61434 18.5319 9.67383C18.6807 9.73338 18.8164 9.82064 18.9303 9.93066C19.0443 10.0407 19.1352 10.1716 19.1969 10.3154C19.2585 10.4591 19.2896 10.6131 19.2897 10.7686V14.2529L21.5563 12.6152C21.8173 12.4373 22.1401 12.365 22.4557 12.4131C22.7712 12.4612 23.0552 12.6261 23.2467 12.873C23.4381 13.12 23.5219 13.4294 23.4811 13.7354C23.4402 14.0412 23.2779 14.3198 23.028 14.5117L19.2897 17.2129V21.7949L22.6364 19.5664C22.9044 19.3878 23.2351 19.3192 23.5553 19.376C23.8755 19.4328 24.1595 19.6103 24.3444 19.8691C24.5292 20.128 24.5994 20.4476 24.5406 20.7568C24.4818 21.066 24.2987 21.34 24.0309 21.5186L19.2897 24.6748L19.2936 28.1084C21.6662 27.8196 23.8485 26.704 25.4303 24.9717C27.012 23.2394 27.8843 21.0089 27.8844 18.6992C27.8844 14.6514 25.4083 11.2826 22.7457 8.84375C21.3167 7.54518 19.7479 6.39785 18.066 5.42188Z" fill="#4C4C4C"/>
</svg>
