<svg width="36" height="36" viewBox="0 0 36 36" fill="none" xmlns="http://www.w3.org/2000/svg">
<path d="M30.0399 17.9605C30.128 17.3814 30.0399 16.7882 30.0399 16.1842C30.0399 9.70918 24.8083 3.75 18.3553 3.75C15.6389 3.75 12.4309 4.68008 10.4464 6.23968C10.7563 6.77932 10.919 7.39088 10.9182 8.01316C10.9197 8.5406 10.8034 9.06172 10.5777 9.53848C10.3521 10.0152 10.0229 10.4356 9.61412 10.7689C9.20531 11.1022 8.72725 11.34 8.21482 11.465C7.70239 11.5899 7.16852 11.5989 6.65218 11.4912C6.20455 12.7346 5.96013 14.7859 5.96013 16.1842C5.96013 16.7882 5.87203 17.3814 5.96013 17.9605M5.21053 22.2237H12.3158M18 30.75C25.4556 30.75 31.5 25.0239 31.5 17.9605H25.8158L23.6842 20.0921L21.5526 17.9605H4.5C4.5 25.0239 10.5444 30.75 18 30.75Z" stroke="#4C4C4C" stroke-width="2.25" stroke-linecap="round" stroke-linejoin="round"/>
<path d="M19.5 10.5C20.3284 10.5 21 9.82843 21 9C21 8.17157 20.3284 7.5 19.5 7.5C18.6716 7.5 18 8.17157 18 9C18 9.82843 18.6716 10.5 19.5 10.5Z" fill="#4C4C4C"/>
<path d="M23.25 14.25C24.0784 14.25 24.75 13.5784 24.75 12.75C24.75 11.9216 24.0784 11.25 23.25 11.25C22.4216 11.25 21.75 11.9216 21.75 12.75C21.75 13.5784 22.4216 14.25 23.25 14.25Z" fill="#4C4C4C"/>
</svg>
