<svg width="36" height="36" viewBox="0 0 36 36" fill="none" xmlns="http://www.w3.org/2000/svg">
<path d="M30.75 19.5001C30.75 26.9558 26.25 33.0001 18 33.0001C9.75 33.0001 5.25 26.9551 5.25 19.5001C5.25 16.7401 6.078 14.1736 7.5 12.0353C9.91875 8.39781 13.305 9.75006 18 9.75006C22.695 9.75006 26.0813 8.39781 28.5 12.0353C29.9213 14.1728 30.75 16.7401 30.75 19.5001Z" stroke="#4C4C4C" stroke-width="2.18919" stroke-linecap="round" stroke-linejoin="round"/>
<path d="M19.5 9.75L21.75 6.75H19.5L18 5.25L16.5 6.75H14.25L16.5 9.75" stroke="#4C4C4C" stroke-width="2.18919" stroke-linecap="round" stroke-linejoin="round"/>
<path d="M13.5 16.5C14.3284 16.5 15 15.8284 15 15C15 14.1716 14.3284 13.5 13.5 13.5C12.6716 13.5 12 14.1716 12 15C12 15.8284 12.6716 16.5 13.5 16.5Z" fill="#4C4C4C"/>
<path d="M11.25 21.75C12.0784 21.75 12.75 21.0784 12.75 20.25C12.75 19.4216 12.0784 18.75 11.25 18.75C10.4216 18.75 9.75 19.4216 9.75 20.25C9.75 21.0784 10.4216 21.75 11.25 21.75Z" fill="#4C4C4C"/>
<path d="M15.75 20.25C16.5784 20.25 17.25 19.5784 17.25 18.75C17.25 17.9216 16.5784 17.25 15.75 17.25C14.9216 17.25 14.25 17.9216 14.25 18.75C14.25 19.5784 14.9216 20.25 15.75 20.25Z" fill="#4C4C4C"/>
<path d="M13.5 25.5C14.3284 25.5 15 24.8284 15 24C15 23.1716 14.3284 22.5 13.5 22.5C12.6716 22.5 12 23.1716 12 24C12 24.8284 12.6716 25.5 13.5 25.5Z" fill="#4C4C4C"/>
</svg>
