<svg width="24" height="24" viewBox="0 0 24 24" fill="none" xmlns="http://www.w3.org/2000/svg">
<path d="M19.5 7.5C20.5915 7.7775 21.5 8.25 21.5 9.5C21.5 10.75 20 11 19 11M13 5C13 3.5 13.8745 2.5 15 2.5C16 2.5 16.524 2.81 17 4M15.5 6C15.5 6 15.9755 4.934 16.5615 4.545C17.4965 3.9235 18.75 3.859 19.436 4.545C19.6252 4.73346 19.7752 4.95741 19.8776 5.204C19.9801 5.4506 20.0328 5.71499 20.0328 5.982C20.0328 6.24901 19.9801 6.5134 19.8776 6.76C19.7752 7.00659 19.6252 7.23054 19.436 7.419C18.64 8.215 17.9985 8.5 17.9985 8.5" stroke="black" stroke-width="1.5" stroke-linecap="round" stroke-linejoin="round"/>
<path d="M4.99996 6.99999C2.45796 9.54249 1.79146 13.4565 3.29496 16.5515C3.29496 16.5515 2.49996 20.5 2.99996 21C3.49996 21.5 7.43096 20.704 7.43096 20.704C8.51292 21.2272 9.69911 21.4994 10.901 21.5C13.068 21.5 15.386 20.5735 17.0005 19C18.5925 17.408 19.304 15.351 19.304 13.118C19.304 10.8645 18.5005 8.99999 16.8275 7.26249C15.1545 5.52449 13.2005 4.65649 10.9445 4.65649C8.69096 4.65649 6.59246 5.40799 5.00046 6.99999" stroke="black" stroke-width="1.5" stroke-linecap="round" stroke-linejoin="round"/>
<path d="M2.5 13.9999C2.5 13.9999 5 13.4999 6 15.4999M9 20.9999C9 20.9999 9.5 18.9999 8.5 17.9999M10.9015 21.4999C9.69963 21.4994 8.51341 21.2273 7.4315 20.7039" stroke="black" stroke-width="1.5" stroke-linecap="round" stroke-linejoin="round"/>
<path d="M3.2953 16.5515C1.7913 13.4565 2.4578 9.5425 5.0003 7" stroke="black" stroke-width="1.5" stroke-linecap="round" stroke-linejoin="round"/>
</svg>
