<svg width="24" height="24" viewBox="0 0 24 24" fill="none" xmlns="http://www.w3.org/2000/svg">
<path d="M11.0107 2.0625C11.4189 1.92504 11.8513 1.87416 12.2803 1.91309C12.7091 1.952 13.1252 2.07946 13.502 2.28809C13.8787 2.49678 14.2082 2.78203 14.4688 3.125C14.7292 3.46793 14.9156 3.86141 15.0156 4.28027C15.1081 4.66767 15.1228 5.06869 15.0635 5.46191C15.4918 5.55693 15.8898 5.75801 16.2197 6.04883C16.5738 6.36102 16.8369 6.76383 16.9795 7.21387C17.122 7.66384 17.139 8.14442 17.0293 8.60352C16.9269 9.0319 16.7161 9.42537 16.4199 9.75C16.7427 10.1042 16.9635 10.5398 17.0537 11.0117C17.1498 11.5146 17.0947 12.0348 16.8965 12.5068C16.6983 12.9787 16.3656 13.3817 15.9395 13.665C15.5131 13.9485 15.012 14.0995 14.5 14.0996H12.8506V18.4482L16.1494 15.1494C16.2267 15.0671 16.3197 15.0011 16.4229 14.9551C16.5271 14.9086 16.6398 14.8838 16.7539 14.8818C16.868 14.8798 16.9811 14.9007 17.0869 14.9434C17.1927 14.9861 17.2894 15.0492 17.3701 15.1299C17.4508 15.2106 17.5139 15.3072 17.5566 15.4131C17.5994 15.5189 17.6211 15.632 17.6191 15.7461C17.6171 15.8602 17.5914 15.9729 17.5449 16.0771C17.4985 16.1814 17.4321 16.2757 17.3486 16.3535L17.3477 16.3525L12.8506 20.8506V22.25C12.8506 22.4752 12.7607 22.6912 12.6016 22.8506C12.4422 23.01 12.2254 23.0996 12 23.0996C11.7746 23.0996 11.5588 23.01 11.3994 22.8506C11.2401 22.6912 11.1504 22.4754 11.1504 22.25V20.8516L6.64941 16.3506V16.3496C6.56736 16.2724 6.50095 16.1801 6.45508 16.0771C6.40864 15.9729 6.38385 15.8602 6.38184 15.7461C6.37985 15.6321 6.40066 15.5188 6.44336 15.4131C6.48611 15.3072 6.55014 15.2106 6.63086 15.1299C6.71147 15.0494 6.80746 14.986 6.91309 14.9434C7.01882 14.9007 7.13208 14.8799 7.24609 14.8818C7.36018 14.8838 7.47292 14.9087 7.57715 14.9551C7.68135 15.0015 7.77573 15.0679 7.85352 15.1514H7.85254L11.1504 18.4482V14.0996H9.5C8.98811 14.0995 8.48784 13.9484 8.06152 13.665C7.63517 13.3816 7.30178 12.9788 7.10352 12.5068C6.90526 12.0348 6.85016 11.5146 6.94629 11.0117C7.03645 10.5401 7.2566 10.1041 7.5791 9.75C7.28323 9.42547 7.07303 9.03165 6.9707 8.60352C6.861 8.14436 6.87889 7.6639 7.02148 7.21387C7.16408 6.76383 7.42615 6.36102 7.78027 6.04883C8.1104 5.75779 8.50883 5.55688 8.9375 5.46191C8.91443 5.30893 8.90039 5.1548 8.90039 5C8.90039 4.56928 8.99028 4.14312 9.16406 3.74902C9.33782 3.35509 9.59129 3.00132 9.90918 2.71094C10.2272 2.4205 10.6026 2.19997 11.0107 2.0625ZM12 3.60059C11.7466 3.60061 11.4976 3.6696 11.2803 3.7998C11.0631 3.92997 10.8851 4.11664 10.7656 4.33984C10.6461 4.56322 10.5893 4.81531 10.6016 5.06836C10.6138 5.32135 10.6945 5.56658 10.835 5.77734C10.9205 5.9052 10.9699 6.05437 10.9775 6.20801C10.9851 6.36138 10.9511 6.51387 10.8789 6.64941C10.8066 6.78517 10.6982 6.89923 10.5664 6.97852C10.4347 7.05765 10.2836 7.09933 10.1299 7.09961H9.5C9.26136 7.09965 9.03203 7.19453 8.86328 7.36328C8.69455 7.53206 8.60059 7.76134 8.60059 8C8.60059 8.23866 8.69455 8.46794 8.86328 8.63672C9.03203 8.80547 9.26136 8.90035 9.5 8.90039C9.72543 8.90039 9.94216 8.99001 10.1016 9.14941C10.2607 9.30878 10.3506 9.52476 10.3506 9.75C10.3506 9.97524 10.2607 10.1912 10.1016 10.3506C9.94216 10.51 9.72543 10.5996 9.5 10.5996C9.26136 10.5997 9.03203 10.6945 8.86328 10.8633C8.69455 11.0321 8.60059 11.2613 8.60059 11.5C8.60059 11.7387 8.69455 11.9679 8.86328 12.1367C9.03203 12.3055 9.26136 12.4003 9.5 12.4004H14.5C14.7387 12.4004 14.9679 12.3055 15.1367 12.1367C15.3055 11.9679 15.4004 11.7387 15.4004 11.5C15.4004 11.2613 15.3055 11.0321 15.1367 10.8633C14.9679 10.6945 14.7387 10.5996 14.5 10.5996C14.2746 10.5996 14.0588 10.51 13.8994 10.3506C13.7401 10.1912 13.6504 9.9754 13.6504 9.75C13.6504 9.5246 13.7401 9.30881 13.8994 9.14941C14.0588 8.99004 14.2746 8.90043 14.5 8.90039C14.7387 8.90039 14.9679 8.80545 15.1367 8.63672C15.3055 8.46794 15.4004 8.23869 15.4004 8C15.4004 7.76131 15.3055 7.53206 15.1367 7.36328C14.9679 7.19455 14.7387 7.09961 14.5 7.09961H13.8711C13.7172 7.09953 13.5665 7.05766 13.4346 6.97852C13.3027 6.89936 13.1946 6.78608 13.1221 6.65039C13.0496 6.51465 13.0149 6.36169 13.0225 6.20801C13.0301 6.05427 13.0795 5.90528 13.165 5.77734C13.3056 5.56654 13.3862 5.32141 13.3984 5.06836C13.4107 4.8153 13.3539 4.56323 13.2344 4.33984C13.1148 4.11662 12.937 3.92995 12.7197 3.7998C12.5023 3.66958 12.2534 3.60059 12 3.60059Z" fill="black" stroke="black" stroke-width="0.2"/>
</svg>
